HIERARCHY
ROOT Hips
{
	OFFSET 0.000000 0.000000 0.000000
	CHANNELS 6 Xposition Yposition Zposition Xrotation Yrotation Zrotation
	JOINT LeftUpLeg_virtual
	{
		OFFSET 0.000000 0.000000 0.000000
		CHANNELS 3 Xrotation Yrotation Zrotation
		JOINT LeftUpLeg
		{
			OFFSET 15.427100 -6.655098 0.678600
			CHANNELS 3 Xrotation Yrotation Zrotation
			JOINT LeftLeg
			{
				OFFSET 4.081073 -39.591068 13.024000
				CHANNELS 3 Xrotation Yrotation Zrotation
				JOINT LeftFoot
				{
					OFFSET -4.081074 -37.707932 -15.979700
					CHANNELS 3 Xrotation Yrotation Zrotation
					JOINT LeftToeBase
					{
						OFFSET 5.346399 -15.068900 20.645000
						CHANNELS 3 Xrotation Yrotation Zrotation
						JOINT LeftToe_End
						{
							OFFSET 2.754700 0.931300 11.300900
							CHANNELS 3 Xrotation Yrotation Zrotation
							End Site
							{
								OFFSET 0 0 0
							}
						}
					}
				}
			}
		}
	}
	JOINT RightUpLeg_virtual
	{
		OFFSET 0.000000 0.000000 0.000000
		CHANNELS 3 Xrotation Yrotation Zrotation
		JOINT RightUpLeg
		{
			OFFSET -15.569500 -6.655098 0.678600
			CHANNELS 3 Xrotation Yrotation Zrotation
			JOINT RightLeg
			{
				OFFSET -4.081825 -39.591045 13.023800
				CHANNELS 3 Xrotation Yrotation Zrotation
				JOINT RightFoot
				{
					OFFSET 4.081824 -37.707954 -15.979600
					CHANNELS 3 Xrotation Yrotation Zrotation
					JOINT RightToeBase
					{
						OFFSET -5.346400 -15.068900 20.645000
						CHANNELS 3 Xrotation Yrotation Zrotation
						JOINT RightToe_End
						{
							OFFSET -2.754700 0.931300 11.300900
							CHANNELS 3 Xrotation Yrotation Zrotation
							End Site
							{
								OFFSET 0 0 0
							}
						}
					}
				}
			}
		}
	}
	JOINT Spine_virtual
	{
		OFFSET 0.000000 0.000000 0.000000
		CHANNELS 3 Xrotation Yrotation Zrotation
		JOINT Spine
		{
			OFFSET -0.279200 12.230698 -2.892100
			CHANNELS 3 Xrotation Yrotation Zrotation
			JOINT Spine1
			{
				OFFSET -0.232667 10.192268 -1.242267
				CHANNELS 3 Xrotation Yrotation Zrotation
				JOINT Spine1_split
				{
					OFFSET -0.232667 10.192268 -1.242267
					CHANNELS 3 Xrotation Yrotation Zrotation
					JOINT Spine2
					{
						OFFSET -0.232667 10.192268 -1.242267
						CHANNELS 3 Xrotation Yrotation Zrotation
						JOINT Neck_virtual
						{
							OFFSET 0.000000 0.000000 0.000000
							CHANNELS 3 Xrotation Yrotation Zrotation
							JOINT Neck
							{
								OFFSET -0.418800 17.814194 8.416900
								CHANNELS 3 Xrotation Yrotation Zrotation
								JOINT Head
								{
									OFFSET 0.000000 7.031097 3.806800
									CHANNELS 3 Xrotation Yrotation Zrotation
									JOINT HeadTop_End
									{
										OFFSET 0.000000 24.646606 12.978600
										CHANNELS 3 Xrotation Yrotation Zrotation
										End Site
										{
											OFFSET 0 0 0
										}
									}
								}
							}
						}
						JOINT LeftShoulder_virtual
						{
							OFFSET 0.000000 0.000000 0.000000
							CHANNELS 3 Xrotation Yrotation Zrotation
							JOINT LeftShoulder
							{
								OFFSET 8.476499 7.247704 -3.868750
								CHANNELS 3 Xrotation Yrotation Zrotation
								JOINT LeftShoulder_split
								{
									OFFSET 8.476499 7.247704 -3.868750
									CHANNELS 3 Xrotation Yrotation Zrotation
									JOINT LeftArm
									{
										OFFSET 9.308998 -2.777710 0.208600
										CHANNELS 3 Xrotation Yrotation Zrotation
										JOINT LeftForeArm
										{
											OFFSET 29.972298 0.000000 0.000000
											CHANNELS 3 Xrotation Yrotation Zrotation
											JOINT LeftHand
											{
												OFFSET 26.026505 0.000000 0.000000
												CHANNELS 3 Xrotation Yrotation Zrotation
												End Site
												{
													OFFSET 0 0 0
												}
											}
										}
									}
								}
							}
						}
						JOINT RightShoulder_virtual
						{
							OFFSET 0.000000 0.000000 0.000000
							CHANNELS 3 Xrotation Yrotation Zrotation
							JOINT RightShoulder
							{
								OFFSET -7.570500 7.247704 -3.868750
								CHANNELS 3 Xrotation Yrotation Zrotation
								JOINT RightShoulder_split
								{
									OFFSET -7.570500 7.247704 -3.868750
									CHANNELS 3 Xrotation Yrotation Zrotation
									JOINT RightArm
									{
										OFFSET -9.308998 -2.777710 0.208500
										CHANNELS 3 Xrotation Yrotation Zrotation
										JOINT RightForeArm
										{
											OFFSET -29.972300 0.000000 0.000000
											CHANNELS 3 Xrotation Yrotation Zrotation
											JOINT RightHand
											{
												OFFSET -26.026505 0.000000 0.000000
												CHANNELS 3 Xrotation Yrotation Zrotation
												End Site
												{
													OFFSET 0 0 0
												}
											}
										}
									}
								}
							}
						}
					}
				}
			}
		}
	}
}
MOTION
Frames: 6
Frame Time: 0.03333333
2.247901 76.651871 -1.368176 0.000000 0.000000 0.000000 20.630916 -4.149331 -29.691423 -71.649081 -9.062114 23.602526 57.628799 -8.529435 8.284071 -7.627207 -3.082696 -4.359866 -3.863577 0.353358 0.389449 0.000000 0.000000 0.000000 21.155036 -2.088103 -31.430632 -22.575476 -28.997653 12.994737 32.354760 -5.206870 1.693000 -12.124822 -10.558797 12.427467 -1.591182 0.435478 0.136682 0.000000 0.000000 0.000000 19.086740 -2.911555 -30.299993 7.520961 4.066778 -16.108757 6.075150 3.114446 -11.243710 1.905337 0.292590 0.085841 0.000000 0.000000 0.000000 6.847245 3.047735 -10.808696 -0.777834 2.675001 -5.465336 -7.259436 17.310729 -4.523378 0.000000 0.000000 0.000000 6.476767 3.617346 -10.907211 0.172419 -3.299475 16.558795 -1.548634 -0.887046 -2.646364 -55.414223 -45.499855 -95.757572 4.195905 -59.060495 2.648550 0.000000 0.000000 0.000000 7.322092 3.194014 -11.389841 0.313854 -4.199993 -0.773338 7.169846 3.604493 -1.792867 -1.722806 60.922268 18.380193 -2.247861 76.699582 1.699670 0.000000 0.000000 0.000000 
2.493012 76.743080 -1.452259 0.000000 0.000000 0.000000 20.625520 -4.676269 -28.983781 -71.629382 -7.994264 23.692702 57.682368 -8.506402 8.327420 -8.059991 -2.910835 -4.127732 -3.659153 0.295901 0.323150 0.000000 0.000000 0.000000 21.115111 -2.562537 -30.709033 -23.245183 -28.883801 12.305071 32.500680 -5.279287 1.701988 -11.623332 -10.210172 12.303172 -1.448829 0.480491 0.170991 0.000000 0.000000 0.000000 19.126025 -3.226157 -29.731185 7.674343 3.946738 -15.765581 6.162474 3.020692 -11.064089 2.012496 0.571378 -0.242609 0.000000 0.000000 0.000000 6.749931 2.994286 -10.638209 0.551185 2.274216 -4.393304 -4.752076 17.211631 -3.234094 0.000000 0.000000 0.000000 6.596907 3.460770 -10.758555 -0.020661 -3.044415 17.075572 -1.083296 -0.825242 -2.361302 -54.520896 -45.439271 -94.951856 3.412504 -58.709581 2.220044 0.000000 0.000000 0.000000 7.432686 3.152913 -11.204189 0.373914 -3.605692 -1.509926 6.993634 3.576076 -1.577817 -2.369882 61.793603 20.035501 -1.991835 74.893202 1.431501 0.000000 0.000000 0.000000 
2.703951 76.859024 -1.535473 0.000000 0.000000 0.000000 20.592156 -5.189141 -28.261395 -71.563505 -7.054037 23.899290 57.697565 -8.507652 8.323082 -8.298804 -2.766897 -4.124278 -3.575609 0.230021 0.249827 0.000000 0.000000 0.000000 21.033820 -2.932656 -29.984428 -23.987857 -28.654921 11.643502 32.772518 -5.460096 1.710508 -11.249538 -9.888645 12.093799 -1.283935 0.531257 0.191621 0.000000 0.000000 0.000000 19.026814 -3.686076 -29.081491 7.883168 3.813167 -15.553606 6.187951 2.902208 -10.797013 2.079327 0.914365 -0.317990 0.000000 0.000000 0.000000 6.585245 2.905951 -10.377320 2.124175 2.004442 -3.261828 -2.324450 17.021718 -1.823179 0.000000 0.000000 0.000000 6.642031 3.275653 -10.552762 -0.214321 -2.820682 17.338237 -0.462307 -0.603860 -2.022499 -52.988239 -45.423514 -93.642659 3.126175 -58.300036 2.165161 0.000000 0.000000 0.000000 7.440412 3.101490 -10.925024 0.406188 -2.985719 -2.256143 6.693428 3.649703 -1.314669 -3.831243 62.172794 22.623279 -1.814657 72.839405 1.119111 0.000000 0.000000 0.000000 
2.856868 77.003242 -1.625557 0.000000 0.000000 0.000000 20.553878 -5.707813 -27.498646 -71.526349 -6.231062 24.250493 57.718035 -8.503504 8.234254 -8.141530 -2.649959 -4.286402 -3.571102 0.155050 0.174526 0.000000 0.000000 0.000000 20.959559 -3.229552 -29.227080 -24.797210 -28.298464 11.056576 33.115568 -5.747216 1.677734 -10.981366 -9.617047 11.795445 -1.093131 0.581261 0.211475 0.000000 0.000000 0.000000 18.861969 -4.276365 -28.340439 8.126314 3.697048 -15.456353 6.198276 2.765623 -10.470777 2.070870 1.140184 -0.167642 0.000000 0.000000 0.000000 6.475716 2.802643 -10.065858 3.791126 1.922235 -2.158346 -0.302759 16.856538 -0.389211 0.000000 0.000000 0.000000 6.674419 3.095179 -10.331251 -0.383181 -2.676673 17.354240 0.149710 -0.344474 -1.678954 -50.976034 -45.727147 -91.705549 3.244615 -57.906398 2.396566 0.000000 0.000000 0.000000 7.397926 3.042520 -10.599734 0.423603 -2.375926 -2.890526 6.289400 3.703744 -1.008550 -5.541896 62.218003 25.446920 -1.659605 71.003491 0.767686 0.000000 0.000000 0.000000 
2.945126 77.187599 -1.747395 0.000000 0.000000 0.000000 20.520603 -6.235533 -26.642618 -71.478708 -5.478258 24.666928 57.699505 -8.406561 8.073699 -7.723776 -2.484762 -4.464672 -3.491255 0.077927 0.074204 0.000000 0.000000 0.000000 20.961782 -3.484480 -28.390369 -25.709136 -27.842576 10.539042 33.458515 -6.106663 1.565299 -10.742930 -9.396961 11.430276 -0.832706 0.627330 0.243863 0.000000 0.000000 0.000000 18.742131 -4.958171 -27.507552 8.375148 3.614713 -15.422142 6.252649 2.646120 -10.140253 1.950430 1.001760 0.105021 0.000000 0.000000 0.000000 6.478313 2.706295 -9.763184 5.323573 2.058213 -1.188679 1.132480 16.804022 0.943214 0.000000 0.000000 0.000000 6.771597 2.940440 -10.156016 -0.476757 -2.612928 17.174528 0.548717 -0.195473 -1.252279 -48.731163 -46.450525 -89.220541 3.601971 -57.706103 2.795976 0.000000 0.000000 0.000000 7.393413 2.992814 -10.303277 0.475399 -1.855816 -3.302898 5.829173 3.562472 -0.804780 -7.062809 62.131185 28.016420 -1.504723 69.869386 0.473632 0.000000 0.000000 0.000000 
2.958640 77.388268 -1.913319 0.000000 0.000000 0.000000 20.534863 -6.727311 -25.656323 -71.323663 -4.713268 25.045537 57.464478 -8.165569 7.877494 -7.394849 -2.204655 -4.604441 -3.200364 0.009872 -0.055162 0.000000 0.000000 0.000000 21.050272 -3.773791 -27.411048 -26.815133 -27.349078 10.028094 33.726146 -6.508209 1.357880 -10.437071 -9.215622 11.033750 -0.524178 0.660042 0.285390 0.000000 0.000000 0.000000 18.692659 -5.700181 -26.544699 8.598925 3.576781 -15.376545 6.398975 2.575070 -9.851619 1.910257 0.559981 0.334881 0.000000 0.000000 0.000000 6.607026 2.649375 -9.521562 6.571714 2.369933 -0.446484 2.003994 16.928081 2.050173 0.000000 0.000000 0.000000 6.982986 2.830681 -10.066587 -0.483794 -2.638050 16.908395 0.735637 -0.323222 -0.794338 -46.373952 -47.281459 -86.398840 3.947872 -58.043713 3.182159 0.000000 0.000000 0.000000 7.503126 2.964850 -10.093585 0.547190 -1.486905 -3.509708 5.481789 3.436842 -0.733754 -7.915645 62.128548 29.818400 -1.304064 69.512550 0.279934 0.000000 0.000000 0.000000 
